<?xml version="1.0" encoding="UTF-8" standalone="no"?>
<svg
   xmlns:dc="http://purl.org/dc/elements/1.1/"
   xmlns:cc="http://creativecommons.org/ns#"
   xmlns:rdf="http://www.w3.org/1999/02/22-rdf-syntax-ns#"
   xmlns:svg="http://www.w3.org/2000/svg"
   xmlns="http://www.w3.org/2000/svg"
   xmlns:sodipodi="http://sodipodi.sourceforge.net/DTD/sodipodi-0.dtd"
   xmlns:inkscape="http://www.inkscape.org/namespaces/inkscape"
   fill="#FFFFFF"
   height="24"
   viewBox="0 0 24 24"
   width="24"
   id="svg2"
   version="1.1"
   inkscape:version="0.91 r"
   sodipodi:docname="ic_camera_rear_white_24dp.svg">
  <metadata
     id="metadata12">
    <rdf:RDF>
      <cc:Work
         rdf:about="">
        <dc:format>image/svg+xml</dc:format>
        <dc:type
           rdf:resource="http://purl.org/dc/dcmitype/StillImage" />
        <dc:title></dc:title>
      </cc:Work>
    </rdf:RDF>
  </metadata>
  <defs
     id="defs10" />
  <sodipodi:namedview
     pagecolor="#ffffff"
     bordercolor="#666666"
     borderopacity="1"
     objecttolerance="10"
     gridtolerance="10"
     guidetolerance="10"
     inkscape:pageopacity="0"
     inkscape:pageshadow="2"
     inkscape:window-width="1916"
     inkscape:window-height="1107"
     id="namedview8"
     showgrid="false"
     inkscape:zoom="13.906433"
     inkscape:cx="-0.54472157"
     inkscape:cy="3.8942308"
     inkscape:window-x="1680"
     inkscape:window-y="72"
     inkscape:window-maximized="0"
     inkscape:current-layer="svg2" />
  <path
     d="M0 0h24v24H0z"
     fill="none"
     id="path4" />
  <path
     d="m 7,0.79980485 c -1.1,0 -2,0.89999995 -2,1.99999995 L 5,21.200195 c 0,1.1 0.9,2 2,2 l 10,0 c 1.1,0 2,-0.9 2,-2 L 19,2.7998048 c 0,-1.1 -0.9,-1.99999995 -2,-1.99999995 l -10,0 z m 4.990234,1.99999995 c 1.1,0 2,0.9 2,2 0.01,1.1 -0.890234,2 -1.990234,2 -1.11,0 -2,-0.9 -2,-2 0,-1.1 0.890234,-2 1.990234,-2 z M 13,15.293945 l 3,3 -3,3 0,-2 -5,0 0,-2 5,0 0,-2 z"
     id="path6"
     inkscape:connector-curvature="0" />
  <path
     style="fill:none"
     inkscape:connector-curvature="0"
     d="m -14.949152,0 24,0 0,24 -24,0 z"
     id="path4-5" />
</svg>
