<?xml version="1.0" encoding="UTF-8" standalone="no"?>
<svg
   xmlns:dc="http://purl.org/dc/elements/1.1/"
   xmlns:cc="http://creativecommons.org/ns#"
   xmlns:rdf="http://www.w3.org/1999/02/22-rdf-syntax-ns#"
   xmlns:svg="http://www.w3.org/2000/svg"
   xmlns="http://www.w3.org/2000/svg"
   xmlns:sodipodi="http://sodipodi.sourceforge.net/DTD/sodipodi-0.dtd"
   xmlns:inkscape="http://www.inkscape.org/namespaces/inkscape"
   fill="#FFFFFF"
   height="24"
   viewBox="0 0 24 24"
   width="24"
   id="svg2"
   version="1.1"
   inkscape:version="0.91 r"
   sodipodi:docname="ic_camera_front_white_24dp.svg">
  <metadata
     id="metadata12">
    <rdf:RDF>
      <cc:Work
         rdf:about="">
        <dc:format>image/svg+xml</dc:format>
        <dc:type
           rdf:resource="http://purl.org/dc/dcmitype/StillImage" />
        <dc:title></dc:title>
      </cc:Work>
    </rdf:RDF>
  </metadata>
  <defs
     id="defs10" />
  <sodipodi:namedview
     pagecolor="#ffffff"
     bordercolor="#666666"
     borderopacity="1"
     objecttolerance="10"
     gridtolerance="10"
     guidetolerance="10"
     inkscape:pageopacity="0"
     inkscape:pageshadow="2"
     inkscape:window-width="1916"
     inkscape:window-height="1125"
     id="namedview8"
     showgrid="false"
     showguides="false"
     inkscape:zoom="19.666667"
     inkscape:cx="15.208825"
     inkscape:cy="10.709591"
     inkscape:window-x="1680"
     inkscape:window-y="54"
     inkscape:window-maximized="0"
     inkscape:current-layer="svg2">
    <sodipodi:guide
       position="3.6101695,29.567797"
       orientation="0,1"
       id="guide4168" />
  </sodipodi:namedview>
  <path
     d="M0 0h24v24H0z"
     fill="none"
     id="path4" />
  <path
     d="m 7,0.80050369 c -1.1,0 -2,0.90000001 -2,2.00000001 L 5,21.199496 c 0,1.100001 0.9,2 2,2 l 10,0 c 1.100001,0 2,-0.899999 2,-2 L 19,2.8005037 c 0,-1.1 -0.899999,-2.00000002 -2,-2.00000001 z m 5.304688,1.28125001 c 0.358153,-7.34e-5 0.648511,0.2902849 0.648438,0.6484375 7.3e-5,0.3581526 -0.290285,0.6485109 -0.648438,0.6484375 -0.358153,7.34e-5 -0.648511,-0.2902849 -0.648438,-0.6484375 -7.3e-5,-0.3581526 0.290285,-0.6485109 0.648438,-0.6484375 z M 7,4.5993318 l 10,0 0,10.4999992 c 0,-1.669998 -3.329999,-2.499999 -5,-2.5 -1.669998,0 -5,0.83 -5,2.5 z m 5,2 c -1.099998,0 -1.990234,0.9 -1.990234,2 0,1.1 0.890234,2.0000002 1.990234,2.0000002 1.1,0 2.000001,-0.9000002 2,-2.0000002 0,-1.1 -0.899999,-2 -2,-2 z m 1.304688,8.7232112 3,3 -3,3 0,-2 -5,0 0,-2 5,0 z"
     id="path6"
     inkscape:connector-curvature="0"
     sodipodi:nodetypes="sssssssssccccccccsccssssscccccccc" />
</svg>
