<?xml version="1.0" encoding="UTF-8" standalone="no"?>
<!-- Created with Inkscape (http://www.inkscape.org/) -->

<svg
   xmlns:dc="http://purl.org/dc/elements/1.1/"
   xmlns:cc="http://creativecommons.org/ns#"
   xmlns:rdf="http://www.w3.org/1999/02/22-rdf-syntax-ns#"
   xmlns:svg="http://www.w3.org/2000/svg"
   xmlns="http://www.w3.org/2000/svg"
   xmlns:sodipodi="http://sodipodi.sourceforge.net/DTD/sodipodi-0.dtd"
   xmlns:inkscape="http://www.inkscape.org/namespaces/inkscape"
   width="150"
   height="150"
   viewBox="0 0 150 150"
   id="svg2"
   version="1.1"
   inkscape:version="0.91 r"
   sodipodi:docname="ic_movie_roll_overlay_selected.svg">
  <defs
     id="defs4" />
  <sodipodi:namedview
     id="base"
     pagecolor="#ffffff"
     bordercolor="#666666"
     borderopacity="1.0"
     inkscape:pageopacity="0.0"
     inkscape:pageshadow="2"
     inkscape:zoom="7.9999999"
     inkscape:cx="64.594313"
     inkscape:cy="120.8531"
     inkscape:document-units="px"
     inkscape:current-layer="layer1"
     showgrid="true"
     units="px"
     inkscape:snap-bbox="true"
     inkscape:bbox-nodes="true"
     inkscape:object-nodes="true"
     inkscape:snap-intersection-paths="true"
     inkscape:snap-global="true"
     inkscape:window-width="1916"
     inkscape:window-height="1023"
     inkscape:window-x="0"
     inkscape:window-y="36"
     inkscape:window-maximized="0">
    <inkscape:grid
       type="xygrid"
       id="grid4136"
       spacingx="5"
       spacingy="5" />
  </sodipodi:namedview>
  <metadata
     id="metadata7">
    <rdf:RDF>
      <cc:Work
         rdf:about="">
        <dc:format>image/svg+xml</dc:format>
        <dc:type
           rdf:resource="http://purl.org/dc/dcmitype/StillImage" />
        <dc:title></dc:title>
      </cc:Work>
    </rdf:RDF>
  </metadata>
  <g
     inkscape:label="Layer 1"
     inkscape:groupmode="layer"
     id="layer1"
     transform="translate(0,-902.36216)">
    <rect
       style="opacity:1;fill:#ffab40;fill-opacity:1;fill-rule:evenodd;stroke:none;stroke-width:2;stroke-linecap:round;stroke-linejoin:round;stroke-miterlimit:4;stroke-dasharray:none;stroke-dashoffset:0;stroke-opacity:1"
       id="rect4141"
       width="150"
       height="5"
       x="0"
       y="902.36218"
       ry="8.0582497e-05" />
    <rect
       style="opacity:1;fill:#ffab40;fill-opacity:1;fill-rule:evenodd;stroke:none;stroke-width:2;stroke-linecap:round;stroke-linejoin:round;stroke-miterlimit:4;stroke-dasharray:none;stroke-dashoffset:0;stroke-opacity:1"
       id="rect4143"
       width="150"
       height="5"
       x="0"
       y="1047.3622"
       ry="8.0582497e-05" />
    <rect
       style="opacity:1;fill:#ffab40;fill-opacity:1;fill-rule:evenodd;stroke:none;stroke-width:2;stroke-linecap:round;stroke-linejoin:round;stroke-miterlimit:4;stroke-dasharray:none;stroke-dashoffset:0;stroke-opacity:1"
       id="rect4145"
       width="150"
       height="5"
       x="0"
       y="1032.3622"
       ry="8.0582497e-05" />
    <rect
       style="opacity:1;fill:#ffab40;fill-opacity:1;fill-rule:evenodd;stroke:none;stroke-width:2;stroke-linecap:round;stroke-linejoin:round;stroke-miterlimit:4;stroke-dasharray:none;stroke-dashoffset:0;stroke-opacity:1"
       id="rect4147"
       width="150"
       height="5"
       x="0"
       y="917.36218"
       ry="8.0582497e-05" />
    <rect
       style="opacity:1;fill:#ffab40;fill-opacity:1;fill-rule:evenodd;stroke:none;stroke-width:2;stroke-linecap:round;stroke-linejoin:round;stroke-miterlimit:4;stroke-dasharray:none;stroke-dashoffset:0;stroke-opacity:1"
       id="rect4149"
       width="5"
       height="150"
       x="0"
       y="902.36218"
       ry="8.0582497e-05" />
    <rect
       style="opacity:1;fill:#ffab40;fill-opacity:1;fill-rule:evenodd;stroke:none;stroke-width:2;stroke-linecap:round;stroke-linejoin:round;stroke-miterlimit:4;stroke-dasharray:none;stroke-dashoffset:0;stroke-opacity:1"
       id="rect4151"
       width="5"
       height="150"
       x="145"
       y="902.36218"
       ry="8.0582497e-05" />
    <rect
       style="opacity:1;fill:#ffab40;fill-opacity:1;fill-rule:evenodd;stroke:none;stroke-width:2;stroke-linecap:round;stroke-linejoin:round;stroke-miterlimit:4;stroke-dasharray:none;stroke-dashoffset:0;stroke-opacity:1"
       id="rect4153"
       width="10"
       height="15"
       x="140"
       y="1032.3622"
       ry="8.0582497e-05" />
    <rect
       style="opacity:1;fill:#ffab40;fill-opacity:1;fill-rule:evenodd;stroke:none;stroke-width:2;stroke-linecap:round;stroke-linejoin:round;stroke-miterlimit:4;stroke-dasharray:none;stroke-dashoffset:0;stroke-opacity:1"
       id="rect4155"
       width="10"
       height="15"
       x="120"
       y="1032.3622"
       ry="8.0582497e-05" />
    <rect
       style="opacity:1;fill:#ffab40;fill-opacity:1;fill-rule:evenodd;stroke:none;stroke-width:2;stroke-linecap:round;stroke-linejoin:round;stroke-miterlimit:4;stroke-dasharray:none;stroke-dashoffset:0;stroke-opacity:1"
       id="rect4157"
       width="10"
       height="15"
       x="100"
       y="1032.3622"
       ry="8.0582497e-05" />
    <rect
       style="opacity:1;fill:#ffab40;fill-opacity:1;fill-rule:evenodd;stroke:none;stroke-width:2;stroke-linecap:round;stroke-linejoin:round;stroke-miterlimit:4;stroke-dasharray:none;stroke-dashoffset:0;stroke-opacity:1"
       id="rect4159"
       width="10"
       height="10"
       x="80"
       y="1037.3622"
       ry="8.0582497e-05" />
    <rect
       style="opacity:1;fill:#ffab40;fill-opacity:1;fill-rule:evenodd;stroke:none;stroke-width:2;stroke-linecap:round;stroke-linejoin:round;stroke-miterlimit:4;stroke-dasharray:none;stroke-dashoffset:0;stroke-opacity:1"
       id="rect4161"
       width="10"
       height="10"
       x="60"
       y="1037.3622"
       ry="8.0582497e-05" />
    <rect
       style="opacity:1;fill:#ffab40;fill-opacity:1;fill-rule:evenodd;stroke:none;stroke-width:2;stroke-linecap:round;stroke-linejoin:round;stroke-miterlimit:4;stroke-dasharray:none;stroke-dashoffset:0;stroke-opacity:1"
       id="rect4163"
       width="10"
       height="10"
       x="40"
       y="1037.3622"
       ry="8.0582497e-05" />
    <rect
       style="opacity:1;fill:#ffab40;fill-opacity:1;fill-rule:evenodd;stroke:none;stroke-width:2;stroke-linecap:round;stroke-linejoin:round;stroke-miterlimit:4;stroke-dasharray:none;stroke-dashoffset:0;stroke-opacity:1"
       id="rect4163-6"
       width="10"
       height="10"
       x="20"
       y="1037.3622"
       ry="8.0582497e-05" />
    <rect
       style="opacity:1;fill:#ffab40;fill-opacity:1;fill-rule:evenodd;stroke:none;stroke-width:2;stroke-linecap:round;stroke-linejoin:round;stroke-miterlimit:4;stroke-dasharray:none;stroke-dashoffset:0;stroke-opacity:1"
       id="rect4163-6-6"
       width="10"
       height="10"
       x="0"
       y="1037.3622"
       ry="8.0582497e-05" />
    <rect
       style="opacity:1;fill:#ffab40;fill-opacity:1;fill-rule:evenodd;stroke:none;stroke-width:2;stroke-linecap:round;stroke-linejoin:round;stroke-miterlimit:4;stroke-dasharray:none;stroke-dashoffset:0;stroke-opacity:1"
       id="rect4153-2"
       width="10"
       height="15"
       x="140"
       y="902.36218"
       ry="8.0582497e-05" />
    <rect
       style="opacity:1;fill:#ffab40;fill-opacity:1;fill-rule:evenodd;stroke:none;stroke-width:2;stroke-linecap:round;stroke-linejoin:round;stroke-miterlimit:4;stroke-dasharray:none;stroke-dashoffset:0;stroke-opacity:1"
       id="rect4155-4"
       width="10"
       height="15"
       x="120"
       y="902.36218"
       ry="8.0582497e-05" />
    <rect
       style="opacity:1;fill:#ffab40;fill-opacity:1;fill-rule:evenodd;stroke:none;stroke-width:2;stroke-linecap:round;stroke-linejoin:round;stroke-miterlimit:4;stroke-dasharray:none;stroke-dashoffset:0;stroke-opacity:1"
       id="rect4157-9"
       width="10"
       height="15"
       x="100"
       y="902.36218"
       ry="8.0582497e-05" />
    <rect
       style="opacity:1;fill:#ffab40;fill-opacity:1;fill-rule:evenodd;stroke:none;stroke-width:2;stroke-linecap:round;stroke-linejoin:round;stroke-miterlimit:4;stroke-dasharray:none;stroke-dashoffset:0;stroke-opacity:1"
       id="rect4159-2"
       width="10"
       height="10"
       x="80"
       y="907.36218"
       ry="8.0582497e-05" />
    <rect
       style="opacity:1;fill:#ffab40;fill-opacity:1;fill-rule:evenodd;stroke:none;stroke-width:2;stroke-linecap:round;stroke-linejoin:round;stroke-miterlimit:4;stroke-dasharray:none;stroke-dashoffset:0;stroke-opacity:1"
       id="rect4161-0"
       width="10"
       height="10"
       x="60"
       y="907.36218"
       ry="8.0582497e-05" />
    <rect
       style="opacity:1;fill:#ffab40;fill-opacity:1;fill-rule:evenodd;stroke:none;stroke-width:2;stroke-linecap:round;stroke-linejoin:round;stroke-miterlimit:4;stroke-dasharray:none;stroke-dashoffset:0;stroke-opacity:1"
       id="rect4163-2"
       width="10"
       height="10"
       x="40"
       y="907.36218"
       ry="8.0582497e-05" />
    <rect
       style="opacity:1;fill:#ffab40;fill-opacity:1;fill-rule:evenodd;stroke:none;stroke-width:2;stroke-linecap:round;stroke-linejoin:round;stroke-miterlimit:4;stroke-dasharray:none;stroke-dashoffset:0;stroke-opacity:1"
       id="rect4163-6-0"
       width="10"
       height="10"
       x="20"
       y="907.36218"
       ry="8.0582497e-05" />
    <rect
       style="opacity:1;fill:#ffab40;fill-opacity:1;fill-rule:evenodd;stroke:none;stroke-width:2;stroke-linecap:round;stroke-linejoin:round;stroke-miterlimit:4;stroke-dasharray:none;stroke-dashoffset:0;stroke-opacity:1"
       id="rect4163-6-6-4"
       width="10"
       height="10"
       x="0"
       y="907.36218"
       ry="8.0582497e-05" />
    <path
       style="opacity:1;fill:#ffab40;fill-opacity:1;fill-rule:evenodd;stroke:none;stroke-width:2;stroke-linecap:round;stroke-linejoin:round;stroke-miterlimit:4;stroke-dasharray:none;stroke-dashoffset:0;stroke-opacity:1"
       d="M 5 0 L 5 20 L 25 20 L 25 0 L 5 0 z M 11.5 5 L 18.5 5 C 19.331 5 20 5.669 20 6.5 L 20 13.5 C 20 14.331 19.331 15 18.5 15 L 11.5 15 C 10.669 15 10 14.331 10 13.5 L 10 6.5 C 10 5.669 10.669 5 11.5 5 z "
       transform="translate(0,902.36216)"
       id="rect4237" />
    <path
       inkscape:connector-curvature="0"
       style="opacity:1;fill:#ffab40;fill-opacity:1;fill-rule:evenodd;stroke:none;stroke-width:2;stroke-linecap:round;stroke-linejoin:round;stroke-miterlimit:4;stroke-dasharray:none;stroke-dashoffset:0;stroke-opacity:1"
       d="m 25,902.36216 0,20 20,0 0,-20 -20,0 z m 6.5,5 7,0 c 0.831,0 1.5,0.669 1.5,1.5 l 0,7 c 0,0.831 -0.669,1.5 -1.5,1.5 l -7,0 c -0.831,0 -1.5,-0.669 -1.5,-1.5 l 0,-7 c 0,-0.831 0.669,-1.5 1.5,-1.5 z"
       id="rect4237-3" />
    <path
       inkscape:connector-curvature="0"
       style="opacity:1;fill:#ffab40;fill-opacity:1;fill-rule:evenodd;stroke:none;stroke-width:2;stroke-linecap:round;stroke-linejoin:round;stroke-miterlimit:4;stroke-dasharray:none;stroke-dashoffset:0;stroke-opacity:1"
       d="m 45,902.36216 0,20 20,0 0,-20 -20,0 z m 6.5,5 7,0 c 0.831,0 1.5,0.669 1.5,1.5 l 0,7 c 0,0.831 -0.669,1.5 -1.5,1.5 l -7,0 c -0.831,0 -1.5,-0.669 -1.5,-1.5 l 0,-7 c 0,-0.831 0.669,-1.5 1.5,-1.5 z"
       id="rect4237-1" />
    <path
       inkscape:connector-curvature="0"
       style="opacity:1;fill:#ffab40;fill-opacity:1;fill-rule:evenodd;stroke:none;stroke-width:2;stroke-linecap:round;stroke-linejoin:round;stroke-miterlimit:4;stroke-dasharray:none;stroke-dashoffset:0;stroke-opacity:1"
       d="m 65,902.36216 0,20 20,0 0,-20 -20,0 z m 6.5,5 7,0 c 0.831,0 1.5,0.669 1.5,1.5 l 0,7 c 0,0.831 -0.669,1.5 -1.5,1.5 l -7,0 c -0.831,0 -1.5,-0.669 -1.5,-1.5 l 0,-7 c 0,-0.831 0.669,-1.5 1.5,-1.5 z"
       id="rect4237-16" />
    <path
       inkscape:connector-curvature="0"
       style="opacity:1;fill:#ffab40;fill-opacity:1;fill-rule:evenodd;stroke:none;stroke-width:2;stroke-linecap:round;stroke-linejoin:round;stroke-miterlimit:4;stroke-dasharray:none;stroke-dashoffset:0;stroke-opacity:1"
       d="m 85,902.36216 0,20 20,0 0,-20 -20,0 z m 6.5,5 7,0 c 0.831,0 1.5,0.669 1.5,1.5 l 0,7 c 0,0.831 -0.669,1.5 -1.5,1.5 l -7,0 c -0.831,0 -1.5,-0.669 -1.5,-1.5 l 0,-7 c 0,-0.831 0.669,-1.5 1.5,-1.5 z"
       id="rect4237-4" />
    <path
       inkscape:connector-curvature="0"
       style="opacity:1;fill:#ffab40;fill-opacity:1;fill-rule:evenodd;stroke:none;stroke-width:2;stroke-linecap:round;stroke-linejoin:round;stroke-miterlimit:4;stroke-dasharray:none;stroke-dashoffset:0;stroke-opacity:1"
       d="m 105,902.36216 0,20 20,0 0,-20 -20,0 z m 6.5,5 7,0 c 0.831,0 1.5,0.669 1.5,1.5 l 0,7 c 0,0.831 -0.669,1.5 -1.5,1.5 l -7,0 c -0.831,0 -1.5,-0.669 -1.5,-1.5 l 0,-7 c 0,-0.831 0.669,-1.5 1.5,-1.5 z"
       id="rect4237-7" />
    <path
       inkscape:connector-curvature="0"
       style="opacity:1;fill:#ffab40;fill-opacity:1;fill-rule:evenodd;stroke:none;stroke-width:2;stroke-linecap:round;stroke-linejoin:round;stroke-miterlimit:4;stroke-dasharray:none;stroke-dashoffset:0;stroke-opacity:1"
       d="m 125,902.36216 0,20 20,0 0,-20 -20,0 z m 6.5,5 7,0 c 0.831,0 1.5,0.669 1.5,1.5 l 0,7 c 0,0.831 -0.669,1.5 -1.5,1.5 l -7,0 c -0.831,0 -1.5,-0.669 -1.5,-1.5 l 0,-7 c 0,-0.831 0.669,-1.5 1.5,-1.5 z"
       id="rect4237-17" />
    <path
       inkscape:connector-curvature="0"
       style="opacity:1;fill:#ffab40;fill-opacity:1;fill-rule:evenodd;stroke:none;stroke-width:2;stroke-linecap:round;stroke-linejoin:round;stroke-miterlimit:4;stroke-dasharray:none;stroke-dashoffset:0;stroke-opacity:1"
       d="m 125,1032.3622 0,20 20,0 0,-20 -20,0 z m 6.5,5 7,0 c 0.831,0 1.5,0.669 1.5,1.5 l 0,7 c 0,0.831 -0.669,1.5 -1.5,1.5 l -7,0 c -0.831,0 -1.5,-0.669 -1.5,-1.5 l 0,-7 c 0,-0.831 0.669,-1.5 1.5,-1.5 z"
       id="rect4237-34" />
    <path
       inkscape:connector-curvature="0"
       style="opacity:1;fill:#ffab40;fill-opacity:1;fill-rule:evenodd;stroke:none;stroke-width:2;stroke-linecap:round;stroke-linejoin:round;stroke-miterlimit:4;stroke-dasharray:none;stroke-dashoffset:0;stroke-opacity:1"
       d="m 105,1032.3622 0,20 20,0 0,-20 -20,0 z m 6.5,5 7,0 c 0.831,0 1.5,0.669 1.5,1.5 l 0,7 c 0,0.831 -0.669,1.5 -1.5,1.5 l -7,0 c -0.831,0 -1.5,-0.669 -1.5,-1.5 l 0,-7 c 0,-0.831 0.669,-1.5 1.5,-1.5 z"
       id="rect4237-12" />
    <path
       inkscape:connector-curvature="0"
       style="opacity:1;fill:#ffab40;fill-opacity:1;fill-rule:evenodd;stroke:none;stroke-width:2;stroke-linecap:round;stroke-linejoin:round;stroke-miterlimit:4;stroke-dasharray:none;stroke-dashoffset:0;stroke-opacity:1"
       d="m 85,1032.3622 0,20 20,0 0,-20 -20,0 z m 6.5,5 7,0 c 0.831,0 1.5,0.669 1.5,1.5 l 0,7 c 0,0.831 -0.669,1.5 -1.5,1.5 l -7,0 c -0.831,0 -1.5,-0.669 -1.5,-1.5 l 0,-7 c 0,-0.831 0.669,-1.5 1.5,-1.5 z"
       id="rect4237-12-2" />
    <path
       inkscape:connector-curvature="0"
       style="opacity:1;fill:#ffab40;fill-opacity:1;fill-rule:evenodd;stroke:none;stroke-width:2;stroke-linecap:round;stroke-linejoin:round;stroke-miterlimit:4;stroke-dasharray:none;stroke-dashoffset:0;stroke-opacity:1"
       d="m 65,1032.3622 0,20 20,0 0,-20 -20,0 z m 6.5,5 7,0 c 0.831,0 1.5,0.669 1.5,1.5 l 0,7 c 0,0.831 -0.669,1.5 -1.5,1.5 l -7,0 c -0.831,0 -1.5,-0.669 -1.5,-1.5 l 0,-7 c 0,-0.831 0.669,-1.5 1.5,-1.5 z"
       id="rect4237-12-1" />
    <path
       inkscape:connector-curvature="0"
       style="opacity:1;fill:#ffab40;fill-opacity:1;fill-rule:evenodd;stroke:none;stroke-width:2;stroke-linecap:round;stroke-linejoin:round;stroke-miterlimit:4;stroke-dasharray:none;stroke-dashoffset:0;stroke-opacity:1"
       d="m 45,1032.3622 0,20 20,0 0,-20 -20,0 z m 6.5,5 7,0 c 0.831,0 1.5,0.669 1.5,1.5 l 0,7 c 0,0.831 -0.669,1.5 -1.5,1.5 l -7,0 c -0.831,0 -1.5,-0.669 -1.5,-1.5 l 0,-7 c 0,-0.831 0.669,-1.5 1.5,-1.5 z"
       id="rect4237-12-4" />
    <path
       inkscape:connector-curvature="0"
       style="opacity:1;fill:#ffab40;fill-opacity:1;fill-rule:evenodd;stroke:none;stroke-width:2;stroke-linecap:round;stroke-linejoin:round;stroke-miterlimit:4;stroke-dasharray:none;stroke-dashoffset:0;stroke-opacity:1"
       d="m 25,1032.3622 0,20 20,0 0,-20 -20,0 z m 6.5,5 7,0 c 0.831,0 1.5,0.669 1.5,1.5 l 0,7 c 0,0.831 -0.669,1.5 -1.5,1.5 l -7,0 c -0.831,0 -1.5,-0.669 -1.5,-1.5 l 0,-7 c 0,-0.831 0.669,-1.5 1.5,-1.5 z"
       id="rect4237-12-20" />
    <path
       inkscape:connector-curvature="0"
       style="opacity:1;fill:#ffab40;fill-opacity:1;fill-rule:evenodd;stroke:none;stroke-width:2;stroke-linecap:round;stroke-linejoin:round;stroke-miterlimit:4;stroke-dasharray:none;stroke-dashoffset:0;stroke-opacity:1"
       d="m 5,1032.3622 0,20 20,0 0,-20 -20,0 z m 6.5,5 7,0 c 0.831,0 1.5,0.669 1.5,1.5 l 0,7 c 0,0.831 -0.669,1.5 -1.5,1.5 l -7,0 c -0.831,0 -1.5,-0.669 -1.5,-1.5 l 0,-7 c 0,-0.831 0.669,-1.5 1.5,-1.5 z"
       id="rect4237-12-6" />
  </g>
</svg>
