<?xml version="1.0" encoding="UTF-8" standalone="no"?>
<svg
   xmlns:dc="http://purl.org/dc/elements/1.1/"
   xmlns:cc="http://creativecommons.org/ns#"
   xmlns:rdf="http://www.w3.org/1999/02/22-rdf-syntax-ns#"
   xmlns:svg="http://www.w3.org/2000/svg"
   xmlns="http://www.w3.org/2000/svg"
   xmlns:sodipodi="http://sodipodi.sourceforge.net/DTD/sodipodi-0.dtd"
   xmlns:inkscape="http://www.inkscape.org/namespaces/inkscape"
   fill="#000000"
   height="36"
   viewBox="0 0 24 24"
   width="36"
   id="svg2"
   version="1.1"
   inkscape:version="0.91 r"
   sodipodi:docname="ic_movies.svg">
  <metadata
     id="metadata12">
    <rdf:RDF>
      <cc:Work
         rdf:about="">
        <dc:format>image/svg+xml</dc:format>
        <dc:type
           rdf:resource="http://purl.org/dc/dcmitype/StillImage" />
        <dc:title></dc:title>
      </cc:Work>
    </rdf:RDF>
  </metadata>
  <defs
     id="defs10" />
  <sodipodi:namedview
     pagecolor="#ffffff"
     bordercolor="#666666"
     borderopacity="1"
     objecttolerance="10"
     gridtolerance="10"
     guidetolerance="10"
     inkscape:pageopacity="0"
     inkscape:pageshadow="2"
     inkscape:window-width="1276"
     inkscape:window-height="967"
     id="namedview8"
     showgrid="false"
     inkscape:zoom="6.5555556"
     inkscape:cx="24.744535"
     inkscape:cy="13.807424"
     inkscape:window-x="1366"
     inkscape:window-y="36"
     inkscape:window-maximized="0"
     inkscape:current-layer="svg2" />
  <g
     id="g4154"
     transform="matrix(0.88235294,0,0,0.88235294,2.5882353,0.23529408)">
    <path
       sodipodi:nodetypes="cccsscssccc"
       inkscape:connector-curvature="0"
       id="path4149"
       transform="scale(0.66666667,0.66666667)"
       d="M 1.15625,10.136719 C -0.07893497,10.505918 -0.984375,11.645385 -0.984375,13 L -1,31 c 0,1.65 1.34999951,3 3,3 l 24,0 c 1.349624,0 2.485794,-0.908807 2.859375,-2.140625 C 28.585219,31.94252 28.300376,32 28,32 L 4,32 C 2.35,32 1,30.65 1,29 L 1.015625,11 c 0,-0.30178 0.057551,-0.587996 0.140625,-0.863281 z"
       style="fill:#000000;fill-opacity:1" />
    <path
       style="fill:#000000;fill-opacity:1"
       id="path4"
       d="M 18,4 20,8 17,8 15,4 13,4 15,8 12,8 10,4 8,4 10,8 7,8 5,4 4,4 C 2.9,4 2.01,4.9 2.01,6 L 2,18 c 0,1.1 0.9,2 2,2 l 16,0 c 1.1,0 2,-0.9 2,-2 L 22,4 18,4 Z"
       inkscape:connector-curvature="0" />
  </g>
  <path
     d="M0 0h24v24H0z"
     fill="none"
     id="path6" />
  <path
     inkscape:connector-curvature="0"
     d="m 5.1864404,-27.322034 2,4 -3,0 -2,-4 -2.00000001,0 2.00000001,4 -3.00000041,0 -1.99999999,-4 -1.999999,0 1.999999,4 -2.9999993,0 -2,-4 -1,0 c -1.1,0 -1.9899997,0.9 -1.9899997,2 l -0.01,12 c 0,1.1 0.8999997,2 1.9999997,2 l 15.9999997,0 c 1.1,0 2,-0.9 2,-2 l 0,-14 -4,0 z"
     id="path4-2"
     style="fill:#000000;fill-opacity:1" />
</svg>
