<?xml version="1.0" encoding="UTF-8" standalone="no"?>
<!-- Created with Inkscape (http://www.inkscape.org/) -->

<svg
   xmlns:dc="http://purl.org/dc/elements/1.1/"
   xmlns:cc="http://creativecommons.org/ns#"
   xmlns:rdf="http://www.w3.org/1999/02/22-rdf-syntax-ns#"
   xmlns:svg="http://www.w3.org/2000/svg"
   xmlns="http://www.w3.org/2000/svg"
   xmlns:sodipodi="http://sodipodi.sourceforge.net/DTD/sodipodi-0.dtd"
   xmlns:inkscape="http://www.inkscape.org/namespaces/inkscape"
   width="16"
   height="16"
   viewBox="0 0 16 16"
   id="svg2"
   version="1.1"
   inkscape:version="0.91 r"
   sodipodi:docname="ic_notification.svg">
  <defs
     id="defs4" />
  <sodipodi:namedview
     id="base"
     pagecolor="#ffffff"
     bordercolor="#666666"
     borderopacity="1.0"
     inkscape:pageopacity="0.0"
     inkscape:pageshadow="2"
     inkscape:zoom="5.656854"
     inkscape:cx="-26.892555"
     inkscape:cy="0.89567171"
     inkscape:document-units="px"
     inkscape:current-layer="layer1"
     showgrid="true"
     units="px"
     borderlayer="true"
     inkscape:snap-global="true"
     inkscape:window-width="1362"
     inkscape:window-height="711"
     inkscape:window-x="0"
     inkscape:window-y="36"
     inkscape:window-maximized="0">
    <inkscape:grid
       type="xygrid"
       id="grid4251"
       visible="false" />
  </sodipodi:namedview>
  <metadata
     id="metadata7">
    <rdf:RDF>
      <cc:Work
         rdf:about="">
        <dc:format>image/svg+xml</dc:format>
        <dc:type
           rdf:resource="http://purl.org/dc/dcmitype/StillImage" />
        <dc:title></dc:title>
      </cc:Work>
    </rdf:RDF>
  </metadata>
  <g
     inkscape:label="Layer 1"
     inkscape:groupmode="layer"
     id="layer1"
     transform="translate(0,-1036.3622)">
    <rect
       style="opacity:0.8;fill:#c8fc00;fill-opacity:1;fill-rule:evenodd;stroke:none;stroke-width:2;stroke-linecap:round;stroke-linejoin:round;stroke-miterlimit:4;stroke-dasharray:none;stroke-dashoffset:0;stroke-opacity:1"
       id="rect4292"
       width="60"
       height="40"
       x="5"
       y="1057.3622"
       ry="2.18435e-05" />
    <ellipse
       style="opacity:1;fill:#a8511a;fill-opacity:1;fill-rule:evenodd;stroke:none;stroke-width:0.1;stroke-linecap:round;stroke-linejoin:round;stroke-miterlimit:4;stroke-dasharray:none;stroke-dashoffset:0;stroke-opacity:1"
       id="path4324-2-1"
       cx="170.01422"
       cy="1056.9283"
       rx="4.4623828"
       ry="5.1077127"
       transform="matrix(0.99044408,0.13791491,-0.13791491,0.99044408,0,0)" />
    <ellipse
       style="opacity:1;fill:#7a3b0f;fill-opacity:1;fill-rule:evenodd;stroke:none;stroke-width:0.1;stroke-linecap:round;stroke-linejoin:round;stroke-miterlimit:4;stroke-dasharray:none;stroke-dashoffset:0;stroke-opacity:1"
       id="path4326-0-6"
       cx="416.75867"
       cy="986.20288"
       rx="2.3890913"
       ry="2.5813169"
       transform="matrix(0.9292401,0.36947644,-0.36947644,0.9292401,0,0)" />
    <ellipse
       style="opacity:1;fill:#a8511a;fill-opacity:1;fill-rule:evenodd;stroke:none;stroke-width:0.1;stroke-linecap:round;stroke-linejoin:round;stroke-miterlimit:4;stroke-dasharray:none;stroke-dashoffset:0;stroke-opacity:1"
       id="path4324-4-4-7"
       cx="196.4057"
       cy="1052.0627"
       rx="4.4623833"
       ry="5.1077127"
       transform="matrix(-0.9743205,0.22516565,0.22516565,0.9743205,0,0)" />
    <ellipse
       style="opacity:1;fill:#7a3b0f;fill-opacity:1;fill-rule:evenodd;stroke:none;stroke-width:0.1;stroke-linecap:round;stroke-linejoin:round;stroke-miterlimit:4;stroke-dasharray:none;stroke-dashoffset:0;stroke-opacity:1"
       id="path4326-7-4-4"
       cx="441.23618"
       cy="975.20099"
       rx="2.3890913"
       ry="2.5813169"
       transform="matrix(-0.89283166,0.45039053,0.45039053,0.89283166,0,0)" />
    <ellipse
       style="opacity:1;fill:#a8511a;fill-opacity:1;fill-rule:evenodd;stroke:none;stroke-width:1.78799999;stroke-linecap:round;stroke-linejoin:round;stroke-miterlimit:4;stroke-dasharray:none;stroke-dashoffset:0;stroke-opacity:1"
       id="path4253-4-7"
       cx="-13.489458"
       cy="1077.9329"
       rx="14.303157"
       ry="12.380117"
       transform="matrix(0.99901543,-0.04436401,0.04436401,0.99901543,0,0)" />
    <ellipse
       style="opacity:1;fill:#000400;fill-opacity:1;fill-rule:evenodd;stroke:none;stroke-width:0.1;stroke-linecap:round;stroke-linejoin:round;stroke-miterlimit:4;stroke-dasharray:none;stroke-dashoffset:0;stroke-opacity:1"
       id="path4346-6-0"
       cx="-18.84885"
       cy="1073.8973"
       rx="1.3398235"
       ry="1.3308045"
       transform="matrix(0.99901543,-0.04436401,0.04436401,0.99901543,0,0)" />
    <ellipse
       style="opacity:1;fill:#000400;fill-opacity:1;fill-rule:evenodd;stroke:none;stroke-width:0.1;stroke-linecap:round;stroke-linejoin:round;stroke-miterlimit:4;stroke-dasharray:none;stroke-dashoffset:0;stroke-opacity:1"
       id="path4346-8-5-6"
       cx="-8.0471268"
       cy="1073.8918"
       rx="1.3398235"
       ry="1.3308045"
       transform="matrix(0.99901543,-0.04436401,0.04436401,0.99901543,0,0)" />
    <path
       style="opacity:1;fill:#ffaf6c;fill-opacity:1;fill-rule:evenodd;stroke:none;stroke-width:0.1;stroke-linecap:round;stroke-linejoin:round;stroke-miterlimit:4;stroke-dasharray:none;stroke-dashoffset:0;stroke-opacity:1"
       id="path4363-2-3"
       transform="matrix(0.99901543,-0.04436401,0.04436401,0.99901543,0,0)"
       ry="4.997869"
       rx="6.71417"
       cy="1081.2651"
       cx="-13.489458"
       d=""
       inkscape:connector-curvature="0" />
    <path
       style="fill:none;fill-rule:evenodd;stroke:#000000;stroke-width:0.36907342;stroke-linecap:butt;stroke-linejoin:miter;stroke-miterlimit:4;stroke-dasharray:none;stroke-opacity:1"
       d="m 34.395393,1078.5991 0.223028,5.0223"
       id="path4393-0-9"
       inkscape:connector-curvature="0" />
    <path
       style="opacity:1;fill:#000400;fill-opacity:1;fill-rule:evenodd;stroke:#000400;stroke-width:0.01230245;stroke-linecap:round;stroke-linejoin:round;stroke-miterlimit:4;stroke-dasharray:none;stroke-dashoffset:0;stroke-opacity:1"
       d="m 34.271256,1075.8051 a 4.9978691,6.7141699 87.457295 0 0 -3.753491,1.0518 5.2450164,4.1053926 87.457295 0 0 3.937485,3.0915 5.2450164,4.1053926 87.457295 0 0 3.652539,-3.4335 4.9978691,6.7141699 87.457295 0 0 -3.836533,-0.7098 z"
       id="path4365-2-5"
       inkscape:connector-curvature="0" />
    <path
       style="opacity:1;fill:none;fill-opacity:1;fill-rule:evenodd;stroke:#000000;stroke-width:0.36907342;stroke-linecap:round;stroke-linejoin:round;stroke-miterlimit:4;stroke-dasharray:none;stroke-dashoffset:0;stroke-opacity:1"
       id="path4399-0-5"
       sodipodi:type="arc"
       sodipodi:cx="-13.489458"
       sodipodi:cy="1081.7299"
       sodipodi:rx="3.2621787"
       sodipodi:ry="2.3786721"
       sodipodi:start="0"
       sodipodi:end="3.1415927"
       sodipodi:open="true"
       d="m -10.227279,1081.7299 a 3.2621787,2.3786721 0 0 1 -1.63109,2.0599 3.2621787,2.3786721 0 0 1 -3.262179,0 3.2621787,2.3786721 0 0 1 -1.631089,-2.0599"
       transform="matrix(0.99901543,-0.04436401,0.04436401,0.99901543,0,0)" />
    <g
       id="g5098"
       transform="matrix(0.91529332,0,0,0.91529332,40.783848,149.46795)" />
    <ellipse
       style="opacity:1;fill:#a8511a;fill-opacity:1;fill-rule:evenodd;stroke:none;stroke-width:0.1;stroke-linecap:round;stroke-linejoin:round;stroke-miterlimit:4;stroke-dasharray:none;stroke-dashoffset:0;stroke-opacity:1"
       id="path4324-2-1-3"
       cx="109.59077"
       cy="1047.1683"
       rx="4.4623828"
       ry="5.1077127"
       transform="matrix(0.99044408,0.13791491,-0.13791491,0.99044408,0,0)" />
    <ellipse
       style="opacity:1;fill:#7a3b0f;fill-opacity:1;fill-rule:evenodd;stroke:none;stroke-width:0.1;stroke-linecap:round;stroke-linejoin:round;stroke-miterlimit:4;stroke-dasharray:none;stroke-dashoffset:0;stroke-opacity:1"
       id="path4326-0-6-8"
       cx="355.74753"
       cy="991.09094"
       rx="2.3890913"
       ry="2.5813169"
       transform="matrix(0.9292401,0.36947644,-0.36947644,0.9292401,0,0)" />
    <ellipse
       style="opacity:1;fill:#a8511a;fill-opacity:1;fill-rule:evenodd;stroke:none;stroke-width:0.1;stroke-linecap:round;stroke-linejoin:round;stroke-miterlimit:4;stroke-dasharray:none;stroke-dashoffset:0;stroke-opacity:1"
       id="path4324-4-4-7-7"
       cx="249.35048"
       cy="1021.3527"
       rx="4.4623833"
       ry="5.1077127"
       transform="matrix(-0.9743205,0.22516565,0.22516565,0.9743205,0,0)" />
    <ellipse
       style="opacity:1;fill:#7a3b0f;fill-opacity:1;fill-rule:evenodd;stroke:none;stroke-width:0.1;stroke-linecap:round;stroke-linejoin:round;stroke-miterlimit:4;stroke-dasharray:none;stroke-dashoffset:0;stroke-opacity:1"
       id="path4326-7-4-4-7"
       cx="485.3598"
       cy="932.78217"
       rx="2.3890913"
       ry="2.5813169"
       transform="matrix(-0.89283166,0.45039053,0.45039053,0.89283166,0,0)" />
    <ellipse
       style="opacity:1;fill:#a8511a;fill-opacity:1;fill-rule:evenodd;stroke:none;stroke-width:1.78799999;stroke-linecap:round;stroke-linejoin:round;stroke-miterlimit:4;stroke-dasharray:none;stroke-dashoffset:0;stroke-opacity:1"
       id="path4253-4-7-3"
       cx="-71.133316"
       cy="1057.3552"
       rx="14.303157"
       ry="12.380117"
       transform="matrix(0.99901543,-0.04436401,0.04436401,0.99901543,0,0)" />
    <ellipse
       style="opacity:1;fill:#000400;fill-opacity:1;fill-rule:evenodd;stroke:none;stroke-width:0.1;stroke-linecap:round;stroke-linejoin:round;stroke-miterlimit:4;stroke-dasharray:none;stroke-dashoffset:0;stroke-opacity:1"
       id="path4346-6-0-6"
       cx="-76.492706"
       cy="1053.3197"
       rx="1.3398235"
       ry="1.3308045"
       transform="matrix(0.99901543,-0.04436401,0.04436401,0.99901543,0,0)" />
    <ellipse
       style="opacity:1;fill:#000400;fill-opacity:1;fill-rule:evenodd;stroke:none;stroke-width:0.1;stroke-linecap:round;stroke-linejoin:round;stroke-miterlimit:4;stroke-dasharray:none;stroke-dashoffset:0;stroke-opacity:1"
       id="path4346-8-5-6-6"
       cx="-65.690987"
       cy="1053.3142"
       rx="1.3398235"
       ry="1.3308045"
       transform="matrix(0.99901543,-0.04436401,0.04436401,0.99901543,0,0)" />
    <ellipse
       style="opacity:1;fill:#ffaf6c;fill-opacity:1;fill-rule:evenodd;stroke:none;stroke-width:0.1;stroke-linecap:round;stroke-linejoin:round;stroke-miterlimit:4;stroke-dasharray:none;stroke-dashoffset:0;stroke-opacity:1"
       id="path4363-2-3-0"
       cx="-71.133316"
       cy="1060.6875"
       rx="6.71417"
       ry="4.997869"
       transform="matrix(0.99901543,-0.04436401,0.04436401,0.99901543,0,0)" />
    <path
       style="fill:none;fill-rule:evenodd;stroke:#000000;stroke-width:0.36907342;stroke-linecap:butt;stroke-linejoin:miter;stroke-miterlimit:4;stroke-dasharray:none;stroke-opacity:1"
       d="m -24.104617,1060.5991 0.223028,5.0223"
       id="path4393-0-9-2"
       inkscape:connector-curvature="0" />
    <path
       style="opacity:1;fill:#000400;fill-opacity:1;fill-rule:evenodd;stroke:#000400;stroke-width:0.01230245;stroke-linecap:round;stroke-linejoin:round;stroke-miterlimit:4;stroke-dasharray:none;stroke-dashoffset:0;stroke-opacity:1"
       d="m -24.228754,1057.8051 a 4.9978691,6.7141699 87.457295 0 0 -3.753491,1.0518 5.2450164,4.1053926 87.457295 0 0 3.937485,3.0915 5.2450164,4.1053926 87.457295 0 0 3.652539,-3.4335 4.9978691,6.7141699 87.457295 0 0 -3.836533,-0.7098 z"
       id="path4365-2-5-3"
       inkscape:connector-curvature="0" />
    <path
       style="opacity:1;fill:none;fill-opacity:1;fill-rule:evenodd;stroke:#000000;stroke-width:0.36907342;stroke-linecap:round;stroke-linejoin:round;stroke-miterlimit:4;stroke-dasharray:none;stroke-dashoffset:0;stroke-opacity:1"
       id="path4399-0-5-6"
       sodipodi:type="arc"
       sodipodi:cx="-71.133316"
       sodipodi:cy="1061.1522"
       sodipodi:rx="3.2621787"
       sodipodi:ry="2.3786721"
       sodipodi:start="0"
       sodipodi:end="3.1415927"
       sodipodi:open="true"
       d="m -67.871137,1061.1522 a 3.2621787,2.3786721 0 0 1 -1.63109,2.06 3.2621787,2.3786721 0 0 1 -3.262178,0 3.2621787,2.3786721 0 0 1 -1.63109,-2.06"
       transform="matrix(0.99901543,-0.04436401,0.04436401,0.99901543,0,0)" />
    <path
       style="opacity:1;fill:#ffffff;fill-opacity:1;fill-rule:evenodd;stroke:none;stroke-width:0.1;stroke-linecap:round;stroke-linejoin:round;stroke-miterlimit:4;stroke-dasharray:none;stroke-dashoffset:0;stroke-opacity:1"
       d="m 13.496437,1037.9803 a 2.5415328,2.2204251 76.987381 0 0 -0.376105,0.05 2.5415328,2.2204251 76.987381 0 0 -1.415014,1.1917 6.1601888,7.1170688 87.457295 0 0 -3.1381035,-0.7901 6.1601888,7.1170688 87.457295 0 0 -0.7113954,0 6.1601888,7.1170688 87.457295 0 0 -3.7066357,1.095 2.2204249,2.5415328 7.927209 0 0 -1.5024804,-1.038 2.2204249,2.5415328 7.927209 0 0 -2.5491632,2.2111 2.2204249,2.5415328 7.927209 0 0 1.1108251,2.5598 6.1601888,7.1170688 87.457295 0 0 -0.1895109,1.6415 6.1601888,7.1170688 87.457295 0 0 7.3841168,5.8388 6.1601888,7.1170688 87.457295 0 0 6.8359942,-6.4695 6.1601888,7.1170688 87.457295 0 0 -0.31974,-1.5761 2.5415328,2.2204251 76.987381 0 0 0.936866,-2.6884 2.5415328,2.2204251 76.987381 0 0 -2.359654,-2.0254 z m -2.790181,3.5959 a 0.88137668,0.8873499 87.457295 0 1 0.925202,0.8406 0.88137668,0.8873499 87.457295 0 1 -0.846483,0.9204 0.88137668,0.8873499 87.457295 0 1 -0.9261738,-0.8417 0.88137668,0.8873499 87.457295 0 1 0.8474548,-0.9193 z m -5.3694722,0.2411 a 0.88137668,0.8873499 87.457295 0 1 0.926174,0.8405 0.88137668,0.8873499 87.457295 0 1 -0.8474536,0.9204 0.88137668,0.8873499 87.457295 0 1 -0.9261737,-0.8417 0.88137668,0.8873499 87.457295 0 1 0.8474533,-0.9192 z"
       id="path4324-2-1-36"
       inkscape:connector-curvature="0" />
  </g>
</svg>
