<?xml version="1.0" encoding="UTF-8" standalone="no"?>
<svg
   xmlns:dc="http://purl.org/dc/elements/1.1/"
   xmlns:cc="http://creativecommons.org/ns#"
   xmlns:rdf="http://www.w3.org/1999/02/22-rdf-syntax-ns#"
   xmlns:svg="http://www.w3.org/2000/svg"
   xmlns="http://www.w3.org/2000/svg"
   xmlns:sodipodi="http://sodipodi.sourceforge.net/DTD/sodipodi-0.dtd"
   xmlns:inkscape="http://www.inkscape.org/namespaces/inkscape"
   height="82.271187"
   viewBox="0 0 114.78904 54.847458"
   width="172.18356"
   id="svg2"
   version="1.1"
   inkscape:version="0.91 r"
   sodipodi:docname="ic_rotate_device.svg"
   style="fill:#000000">
  <metadata
     id="metadata12">
    <rdf:RDF>
      <cc:Work
         rdf:about="">
        <dc:format>image/svg+xml</dc:format>
        <dc:type
           rdf:resource="http://purl.org/dc/dcmitype/StillImage" />
        <dc:title></dc:title>
      </cc:Work>
    </rdf:RDF>
  </metadata>
  <defs
     id="defs10" />
  <sodipodi:namedview
     pagecolor="#ffffff"
     bordercolor="#666666"
     borderopacity="1"
     objecttolerance="10"
     gridtolerance="10"
     guidetolerance="10"
     inkscape:pageopacity="0"
     inkscape:pageshadow="2"
     inkscape:window-width="1916"
     inkscape:window-height="1023"
     id="namedview8"
     showgrid="false"
     fit-margin-top="0"
     fit-margin-left="0"
     fit-margin-right="0"
     fit-margin-bottom="0"
     inkscape:zoom="4.6354778"
     inkscape:cx="41.316433"
     inkscape:cy="27.348883"
     inkscape:window-x="0"
     inkscape:window-y="36"
     inkscape:window-maximized="0"
     inkscape:current-layer="svg2" />
  <rect
     style="opacity:0.6;fill:#004000;fill-opacity:1;fill-rule:evenodd;stroke:none;stroke-width:1.78799999;stroke-linecap:round;stroke-linejoin:round;stroke-miterlimit:4;stroke-dasharray:none;stroke-dashoffset:0;stroke-opacity:1"
     id="rect4135"
     width="149.14825"
     height="79.016945"
     x="-24.368889"
     y="70.267319"
     ry="0.16659267" />
  <path
     d="m 5.451464,15.423728 24,0 0,24 -24,0 z"
     id="path4"
     inkscape:connector-curvature="0"
     style="fill:none" />
  <path
     d="m 34.962123,81.577876 -1.41,-1.42 c -0.9,1.16 -1.46,2.5 -1.63,3.89 l 2.02,0 c 0.14,-0.87 0.49,-1.72 1.02,-2.47 z m -1.02,4.47 -2.02,0 c 0.17,1.39 0.72,2.73 1.62,3.89 l 1.41,-1.42 c -0.52,-0.75 -0.87,-1.59 -1.01,-2.47 z m 1.01,5.32 c 1.16,0.9 2.51,1.44 3.9,1.61 l 0,-2.03 c -0.87,-0.15 -1.71,-0.49 -2.46,-1.03 l -1.44,1.45 z m 5.9,-14.25 0,-3.07 -4.55,4.55 4.55,4.45 0,-3.91 c 2.84,0.48 5,2.94 5,5.91 0,2.97 -2.16,5.43 -5,5.91 l 0,2.02 c 3.95,-0.49 7,-3.85 7,-7.93 0,-4.08 -3.05,-7.44 -7,-7.93 z"
     id="path6"
     inkscape:connector-curvature="0"
     style="fill:#ffffff;fill-opacity:1" />
  <path
     style="fill:#ffffff;fill-opacity:1"
     inkscape:connector-curvature="0"
     d="M 29.916795,0.02493 4.986133,0 C 2.24376,0 0,2.243759 0,4.986133 l 0,44.87519 c 0,2.742373 2.24376,4.986134 4.986133,4.986134 l 24.930662,0 c 2.742373,0 4.986133,-2.243761 4.986133,-4.986134 l 0,-44.87519 c 0,-2.742374 -2.24376,-4.961203 -4.986133,-4.961203 z m 0,44.850261 -24.930662,0 0,-34.9029275 24.930662,0 z"
     id="path4214"
     sodipodi:nodetypes="ccsssssscccccc" />
  <path
     style="fill:#ffffff;fill-opacity:1"
     inkscape:connector-curvature="0"
     d="m 114.76414,39.88906 0.0249,-24.930662 c 0,-2.742373 -2.24376,-4.9861336 -4.98614,-4.9861336 l -44.875185,0 c -2.742373,0 -4.986134,2.2437606 -4.986134,4.9861336 l 0,24.930662 c 0,2.742373 2.243761,4.986133 4.986134,4.986133 l 44.875185,0 c 2.74238,0 4.96121,-2.24376 4.96121,-4.986133 z m -44.850263,0 0,-24.930662 34.902923,0 0,24.930662 z"
     id="path4214-9"
     sodipodi:nodetypes="ccsssssscccccc" />
  <path
     d="m 39.644156,77.350481 24,0 0,23.999999 -24,0 z"
     id="path4-4"
     inkscape:connector-curvature="0"
     style="fill:none" />
  <path
     style="fill:#ffffff"
     d="m 47.996356,21.192457 -1.098262,1.098262 4.346313,4.354102 -9.479324,0 0,1.557818 9.479324,0 -4.346313,4.354102 1.098262,1.09826 6.231271,-6.231271 z"
     id="path6-9"
     inkscape:connector-curvature="0" />
</svg>
